<svg xmlns="http://www.w3.org/2000/svg" version="1.1" xmlns:xlink="http://www.w3.org/1999/xlink" xmlns:svgjs="http://svgjs.dev/svgjs" width="100%" height="100%" viewBox="0 0 1000 600"><rect width="1000" height="600" x="0" y="0" fill="#FFFF"/><g><rect width="333.3333333333333" height="333.3333333333333" rx="13.333333333333334" ry="13.333333333333334" y="376.27758246045" fill="#14213dff" transform="matrix(0.35305209213832833,0,0,0.35305209213832833,0,108.31238369139037)" x="354.0553894042968"/><path d="M459.4544614147755 617.9442422336376L411.9192491539562 617.9442422336376L411.9192491539562 467.9442390994966L454.1727711635734 467.9442390994966Q478.8793444497523 467.9442390994966 491.4673728817841 478.91841773255Q504.0260585901981 489.9219390892211 504.0260585901981 508.9360239935488L504.0260585901981 508.9360239935488Q504.0260585901981 518.2376673803882 499.59530732391187 525.6320337320712Q495.1645560576256 533.0264000837542 487.1246497863512 537.2517522847158Q479.1140862386946 541.4771044856776 468.55070573629035 541.4771044856776L468.55070573629035 541.4771044856776L468.55070573629035 540.1860246464948Q481.63756046982456 540.1860246464948 491.02723202751724 544.6461186363989Q500.4462463088277 549.0768699026852 505.4051666002342 557.0874334503418Q510.3640868916407 565.1273397216162 510.3640868916407 576.1015183546697L510.3640868916407 576.1015183546697Q510.3640868916407 595.5557441132642 496.8370913038396 606.735321811642Q483.33943843965636 617.9442422336376 459.4544614147755 617.9442422336376L459.4544614147755 617.9442422336376ZM430.082395073368 550.5440060835747L430.082395073368 600.1918944448748L459.6598604801 600.1918944448748Q475.94507208797336 600.1918944448748 483.63286567583424 593.8538661434322Q491.3500019873129 587.5158378419899 491.3500019873129 576.1015183546697L491.3500019873129 576.1015183546697Q491.3500019873129 564.0710016713757 483.33943843965636 557.3221752392841Q475.299532168382 550.5440060835747 459.6598604801 550.5440060835747L459.6598604801 550.5440060835747L430.082395073368 550.5440060835747ZM430.082395073368 485.6965868882594L430.082395073368 532.7916582948119L455.0237101484893 532.7916582948119Q470.6633818367712 532.7916582948119 477.8230063995119 526.6883717823116Q485.0119736858704 520.5557425461936 485.0119736858704 509.3468221241979L485.0119736858704 509.3468221241979Q485.0119736858704 497.9325026368777 477.8230063995119 491.82921612437747Q470.6633818367712 485.6965868882594 455.0237101484893 485.6965868882594L455.0237101484893 485.6965868882594L430.082395073368 485.6965868882594ZM629.5248875034847 617.9442422336376L536.5671390823268 617.9442422336376L536.5671390823268 600.1918944448748L573.949768971391 600.1918944448748L573.949768971391 485.6965868882594L536.5671390823268 485.6965868882594L536.5671390823268 467.9442390994966L629.5248875034847 467.9442390994966L629.5248875034847 485.6965868882594L592.1422576144207 485.6965868882594L592.1422576144207 600.1918944448748L629.5248875034847 600.1918944448748L629.5248875034847 617.9442422336376Z " fill="#f47c3c" transform="matrix(0.35305209213832833,0,0,0.35305209213832833,0,108.31238369139037)"/><path d="M817.4079436785795 615.4658434595003L770.7220674532958 615.4658434595003L770.7220674532958 468.14596737082746L812.2206240979923 468.14596737082746Q836.4857523582941 468.14596737082746 848.84886402536 478.9240647216028Q861.1831572503114 489.73098051449256 861.1831572503114 508.405331004606L861.1831572503114 508.405331004606Q861.1831572503114 517.5407771548621 856.8315724910411 524.803024567684Q852.4799877317708 532.0652719805059 844.5837345924327 536.2151276449756Q836.7162998952091 540.3649833094453 826.3416607340349 540.3649833094453L826.3416607340349 540.3649833094453L826.3416607340349 539.0969718564129Q839.1946859170451 539.0969718564129 848.4165873936444 543.4773750577974Q857.6673073123579 547.8289598170677 862.537624029687 555.6963945142915Q867.4079407470159 563.5926476536296 867.4079407470159 574.3707450044051L867.4079407470159 574.3707450044051Q867.4079407470159 593.4773721262341 854.1226389322901 604.4571985718101Q840.8661555596788 615.4658434595003 817.4079436785795 615.4658434595003L817.4079436785795 615.4658434595003ZM788.5606831220924 549.2698819227863L788.5606831220924 598.030685980305L817.6096727733801 598.030685980305Q833.6039081468568 598.030685980305 841.1543399808224 591.8059024836004Q848.7335902569024 585.581118986896 848.7335902569024 574.3707450044051L848.7335902569024 574.3707450044051Q848.7335902569024 562.5551837375122 840.8661555596788 555.9269420512064Q832.9699024203406 549.2698819227863 817.6096727733801 549.2698819227863L817.6096727733801 549.2698819227863L788.5606831220924 549.2698819227863ZM788.5606831220924 485.5811248500229L788.5606831220924 531.8347244435909L813.0563589193092 531.8347244435909Q828.4165885662698 531.8347244435909 835.4482884421767 525.8404884838014Q842.5088067601979 519.8174340818975 842.5088067601979 508.80878919420724L842.5088067601979 508.80878919420724Q842.5088067601979 497.5984152117163 835.4482884421767 491.6041792519268Q828.4165885662698 485.5811248500229 813.0563589193092 485.5811248500229L813.0563589193092 485.5811248500229L788.5606831220924 485.5811248500229ZM940.6644206017511 617.9442294813364L940.6644206017511 617.9442294813364Q925.1024618599898 617.9442294813364 913.7768141090414 610.9125296054294Q902.4799848002074 603.8520112874082 896.3704750719604 590.8837123359406Q890.232146901599 577.9154133844729 890.232146901599 560.4802559052773L890.232146901599 560.4802559052773Q890.232146901599 543.0450984260818 896.3704750719604 530.1920732430717Q902.4799848002074 517.3102296179471 913.5750850142408 510.16325597358275Q924.6701852282742 503.0162823292183 939.8286857804343 503.0162823292183L939.8286857804343 503.0162823292183Q954.1514515112774 503.0162823292183 965.1312779568534 509.7597977839815Q976.1399228445438 516.5033132387447 982.3647063412483 529.3563384217549Q988.5894898379527 542.209363604765 988.5894898379527 560.6819850000779L988.5894898379527 560.6819850000779L988.5894898379527 565.8693045806649L908.5030392021113 565.8693045806649Q909.5405031182287 583.5061911546611 917.9266697735111 592.4399082101165Q926.3416548709079 601.3448068234577 940.6644206017511 601.3448068234577L940.6644206017511 601.3448068234577Q951.4425179525264 601.3448068234577 958.3877625020901 596.2727610113282Q965.3618254937684 591.2007151991986 968.041940610405 582.9010038702593L968.041940610405 582.9010038702593L986.7162911005186 584.3419259759778Q982.3647063412483 599.0681498964223 970.2321422110973 608.5205989099366Q958.0995780809465 617.9442294813364 940.6644206017511 617.9442294813364ZM908.5030392021113 550.5090749337044L908.5030392021113 550.5090749337044L969.511681158238 550.5090749337044Q968.2436697052057 534.543658002342 960.1745059131813 527.0796814947195Q952.0765236790426 519.6157049870969 939.8286857804343 519.6157049870969L939.8286857804343 519.6157049870969Q927.1773896922247 519.6157049870969 918.9641336896285 527.3966843579776Q910.7796961291467 535.1776637288581 908.5030392021113 550.5090749337044ZM1065.3618196306415 617.9442294813364L1065.3618196306415 617.9442294813364Q1051.039053899798 617.9442294813364 1040.6644147386241 612.9874574376643Q1030.2897755774497 608.0018669518777 1024.3819949440035 599.5868818544809Q1018.4742143105572 591.2007151991986 1017.6384794892402 580.8260760380244L1017.6384794892402 580.8260760380244L1035.9093717897526 579.558064584992Q1037.5520229902718 589.7309746513656 1044.9295441715512 595.5522999584689Q1052.278246910716 601.3448068234577 1065.3618196306415 601.3448068234577L1065.3618196306415 601.3448068234577Q1077.6096575292495 601.3448068234577 1084.3531729840129 597.8289568855043Q1091.0966884387763 594.3131069475508 1091.0966884387763 586.8203119978139L1091.0966884387763 586.8203119978139Q1091.0966884387763 582.0652690489424 1088.8200315117406 578.9528773005902Q1086.5145561425907 575.8404855522381 1080.2897726458864 573.6502839515456Q1074.0649891491817 571.4889007929678 1062.0476987874886 569.413972960733L1062.0476987874886 569.413972960733Q1046.0534634140117 566.5033103071812 1037.0332910322131 562.238180874254Q1028.0131186504145 558.0018698834413 1024.266721175546 551.5465388498218Q1020.5491421427919 545.1200262583167 1020.5491421427919 536.2151276449756L1020.5491421427919 536.2151276449756Q1020.5491421427919 526.6474048630039 1025.3041850916634 519.1834283553814Q1030.0880464826491 511.7194518477588 1039.4252217277062 507.3678670884886Q1048.7623969727629 503.0162823292183 1062.2494278822892 503.0162823292183L1062.2494278822892 503.0162823292183Q1075.938187886616 503.0162823292183 1085.1889078053296 507.8865990465473Q1094.4108092819288 512.7569157638762 1099.7998579573168 520.7396242295574Q1105.1889066327044 528.7223326952387 1106.8603762753378 538.2900554772104L1106.8603762753378 538.2900554772104L1088.5894839748257 539.5292484881284Q1087.3502909639078 533.7079231810251 1083.9208963522974 529.2410646532974Q1080.5203201828012 524.803024567684 1075.0159977389562 522.2093647773904Q1069.5116752951112 519.6157049870969 1062.0476987874886 519.6157049870969L1062.0476987874886 519.6157049870969Q1050.0015899836808 519.6157049870969 1044.209083118692 524.3707479359684Q1038.3877578115885 529.1546093269543 1038.3877578115885 536.2151276449756L1038.3877578115885 536.2151276449756Q1038.3877578115885 541.8059054151638 1041.0966913703396 545.1200262583167Q1043.776806486976 548.4341471014695 1049.7998608888802 550.4226196073612Q1055.8229152907838 552.3822736711386 1065.7652778202428 554.0537433137722L1065.7652778202428 554.0537433137722Q1082.796977109837 556.7338584304089 1092.1341523548936 560.998987863336Q1101.4713275999502 565.2641172962632 1105.1889066327044 571.4889007929678Q1108.9353041075728 577.7136842896723 1108.9353041075728 586.8203119978139L1108.9353041075728 586.8203119978139Q1108.9353041075728 596.5897638745862 1103.2292525689268 603.53500842415Q1097.5232010302811 610.480252973714 1087.6672938271658 614.2266504485822Q1077.8113866240506 617.9442294813364 1065.3618196306415 617.9442294813364ZM1233.4309740416625 615.4658434595003L1203.9785262007736 615.4658434595003Q1187.9842908272967 615.4658434595003 1180.1168561300728 608.0018669518777Q1172.2206029907352 600.5378904442553 1172.2206029907352 585.1776607972947L1172.2206029907352 585.1776607972947L1172.2206029907352 479.7597995429196L1189.6557604699306 479.7597995429196L1189.6557604699306 585.1776607972947Q1189.6557604699306 592.8433663997178 1193.1716104078837 596.4744901061288Q1196.7162787879515 600.1056138125398 1203.9785262007736 600.1056138125398L1203.9785262007736 600.1056138125398L1233.4309740416625 600.1056138125398L1233.4309740416625 615.4658434595003ZM1233.4309740416625 520.854897998015L1135.9093659266255 520.854897998015L1135.9093659266255 505.4946683510544L1233.4309740416625 505.4946683510544L1233.4309740416625 520.854897998015ZM1482.4223139098417 615.4658434595003L1391.1254892915094 615.4658434595003L1391.1254892915094 598.030685980305L1427.84018454522 598.030685980305L1427.84018454522 485.5811248500229L1391.1254892915094 485.5811248500229L1391.1254892915094 468.14596737082746L1482.4223139098417 468.14596737082746L1482.4223139098417 485.5811248500229L1445.7076186561312 485.5811248500229L1445.7076186561312 598.030685980305L1482.4223139098417 598.030685980305L1482.4223139098417 615.4658434595003ZM1554.4107823115446 617.9442294813364L1554.4107823115446 617.9442294813364Q1539.8862874859005 617.9442294813364 1529.309919229926 610.9125296054294Q1518.7335509739514 603.8520112874082 1513.0274994353053 590.9701676622835Q1507.3214478966597 578.1171424792733 1507.3214478966597 560.4802559052773L1507.3214478966597 560.4802559052773Q1507.3214478966597 542.8433693312813 1513.0274994353053 529.9903441482711Q1518.7335509739514 517.1085005231465 1529.309919229926 510.04798220512527Q1539.8862874859005 503.0162823292183 1554.4107823115446 503.0162823292183L1554.4107823115446 503.0162823292183Q1566.0534329257512 503.0162823292183 1574.7566024442917 508.49178633094914Q1583.4597719628323 513.9961087747943 1587.407898532501 520.854897998015L1587.407898532501 520.854897998015L1587.407898532501 468.14596737082746L1604.8430560116967 468.14596737082746L1604.8430560116967 615.4658434595003L1589.0793681751347 615.4658434595003L1588.4453624486187 598.8664208016216Q1583.8920485945478 607.8001378570773 1574.9583315390923 612.8721836692068Q1566.0534329257512 617.9442294813364 1554.4107823115446 617.9442294813364ZM1555.448246227662 601.3448068234577L1555.448246227662 601.3448068234577Q1565.4194271992346 601.3448068234577 1572.5664008435992 596.3880347797856Q1579.742192930078 591.4024442939992 1583.5750457312897 582.1517243752855Q1587.407898532501 572.9298228986863 1587.407898532501 560.4802559052773L1587.407898532501 560.4802559052773Q1587.407898532501 547.6272307222671 1583.5750457312897 538.491784572011Q1579.742192930078 529.3563384217549 1572.479945517256 524.4860217044259Q1565.2176981044345 519.6157049870969 1555.0447880380607 519.6157049870969L1555.0447880380607 519.6157049870969Q1541.5577571285344 519.6157049870969 1533.575048662853 530.5090761063298Q1525.5923401971718 541.4024472255626 1525.5923401971718 560.4802559052773L1525.5923401971718 560.4802559052773Q1525.5923401971718 579.3563354901914 1533.575048662853 590.3649803778817Q1541.5577571285344 601.3448068234577 1555.448246227662 601.3448068234577ZM1687.638440206289 617.9442294813364L1687.638440206289 617.9442294813364Q1672.0764814645277 617.9442294813364 1660.7508337135791 610.9125296054294Q1649.4540044047453 603.8520112874082 1643.3444946764985 590.8837123359406Q1637.206166506137 577.9154133844729 1637.206166506137 560.4802559052773L1637.206166506137 560.4802559052773Q1637.206166506137 543.0450984260818 1643.3444946764985 530.1920732430717Q1649.4540044047453 517.3102296179471 1660.5491046187785 510.16325597358275Q1671.6442048328122 503.0162823292183 1686.8027053849723 503.0162823292183L1686.8027053849723 503.0162823292183Q1701.1254711158153 503.0162823292183 1712.1052975613911 509.7597977839815Q1723.1139424490816 516.5033132387447 1729.3387259457863 529.3563384217549Q1735.5635094424906 542.209363604765 1735.5635094424906 560.6819850000779L1735.5635094424906 560.6819850000779L1735.5635094424906 565.8693045806649L1655.477058806649 565.8693045806649Q1656.5145227227667 583.5061911546611 1664.9006893780493 592.4399082101165Q1673.315674475446 601.3448068234577 1687.638440206289 601.3448068234577L1687.638440206289 601.3448068234577Q1698.4165375570642 601.3448068234577 1705.3617821066282 596.2727610113282Q1712.3358450983064 591.2007151991986 1715.0159602149429 582.9010038702593L1715.0159602149429 582.9010038702593L1733.6903107050566 584.3419259759778Q1729.3387259457863 599.0681498964223 1717.2061618156354 608.5205989099366Q1705.0735976854844 617.9442294813364 1687.638440206289 617.9442294813364ZM1655.477058806649 550.5090749337044L1655.477058806649 550.5090749337044L1716.485700762776 550.5090749337044Q1715.2176893097435 534.543658002342 1707.1485255177195 527.0796814947195Q1699.0505432835807 519.6157049870969 1686.8027053849723 519.6157049870969L1686.8027053849723 519.6157049870969Q1674.1514092967627 519.6157049870969 1665.9381532941666 527.3966843579776Q1657.7537157336847 535.1776637288581 1655.477058806649 550.5090749337044ZM1795.7364165773006 617.9442294813364L1795.7364165773006 617.9442294813364Q1785.3617774161266 617.9442294813364 1777.0620660871873 614.2266504485822Q1768.762354758248 610.480252973714 1763.9784933672622 603.7367375189506Q1759.2234504183907 596.9932220641874 1759.2234504183907 588.0883234508462L1759.2234504183907 588.0883234508462Q1759.2234504183907 573.9672868148039 1767.6096170736732 566.186307443923Q1776.02460217107 558.4053280730425 1794.0649469346668 554.889478135089L1794.0649469346668 554.889478135089L1831.0101897252925 547.3966831853521Q1831.0101897252925 533.3044649914239 1824.6701324601308 526.4456757682033Q1818.3588936370834 519.6157049870969 1806.5145139280758 519.6157049870969L1806.5145139280758 519.6157049870969Q1795.1024108507845 519.6157049870969 1788.6758982592792 524.6877507992265Q1782.2493856677743 529.7597966113561 1779.7709996459384 539.3275193933277L1779.7709996459384 539.3275193933277L1761.2983782506253 537.8577788454947Q1764.4107699989777 522.2958201037336 1776.1398759395274 512.6416419954187Q1787.8401634379625 503.0162823292183 1806.5145139280758 503.0162823292183L1806.5145139280758 503.0162823292183Q1826.456875871222 503.0162823292183 1837.436702316798 514.9471173645686Q1848.445347204488 526.8779523999189 1848.445347204488 547.8289598170677L1848.445347204488 547.8289598170677L1848.445347204488 593.4773721262341Q1848.445347204488 597.194951158988 1850.0879984050075 598.664691706821Q1851.759468047641 600.1056138125398 1855.0735888907939 600.1056138125398L1855.0735888907939 600.1056138125398L1862.1341072088153 600.1056138125398L1862.1341072088153 615.4658434595003Q1860.8949141978974 615.6675725543009 1858.1859806391462 615.7828463227584Q1855.5058655225093 615.8693016491015 1852.9986610585588 615.8693016491015L1852.9986610585588 615.8693016491015Q1845.9381427405378 615.8693016491015 1841.067826023209 613.5926447220661Q1836.19750930588 611.3159877950307 1833.7191232840437 606.2439419829011Q1831.2119188200936 601.1430777286571 1831.0101897252925 593.0450954945184L1831.0101897252925 593.0450954945184L1834.3243105684455 593.0450954945184Q1832.883388462727 600.1056138125398 1827.379066018882 605.8116653511854Q1821.8747435750365 611.5177168898313 1813.5750322460972 614.745382406641Q1805.2753209171583 617.9442294813364 1795.7364165773006 617.9442294813364ZM1797.4078862199344 602.6128182764901L1797.4078862199344 602.6128182764901Q1808.5894417603108 602.6128182764901 1816.0822367100477 598.7511470331642Q1823.5462132176704 594.9182942319526 1827.2637922504246 587.9730496823888Q1831.0101897252925 581.027805132825 1831.0101897252925 571.892358982569L1831.0101897252925 571.892358982569L1831.0101897252925 562.3534546427115L1797.4078862199344 568.9816963290173Q1786.1975122374433 571.0566241612521 1781.845927478173 575.3217535941792Q1777.4655242767885 579.558064584992 1777.4655242767885 586.4168538082126L1777.4655242767885 586.4168538082126Q1777.4655242767885 594.0825594106359 1782.768117625833 598.347688843563Q1788.0707109748778 602.6128182764901 1797.4078862199344 602.6128182764901ZM2046.3992260881137 615.4658434595003L2019.4251642690606 615.4658434595003L2003.2291998007836 468.14596737082746L2021.9035502908969 468.14596737082746L2035.5923102952238 605.0912042983261L2033.5173824629892 605.0912042983261L2049.7133469312666 484.7453900287061L2068.791155610981 484.7453900287061L2084.9871200792586 605.0912042983261L2082.912192247024 605.0912042983261L2096.600952251351 468.14596737082746L2115.275302741464 468.14596737082746L2099.0793382731867 615.4658434595003L2072.105276454134 615.4658434595003L2056.773865249288 499.26988485434987L2061.7306372929597 499.26988485434987L2046.3992260881137 615.4658434595003ZM2199.7133381365757 615.4658434595003L2182.306999099495 615.4658434595003L2182.306999099495 505.4946683510544L2199.7133381365757 505.4946683510544L2199.7133381365757 615.4658434595003ZM2237.696044843319 615.4658434595003L2138.099508896047 615.4658434595003L2138.099508896047 600.1056138125398L2237.696044843319 600.1056138125398L2237.696044843319 615.4658434595003ZM2199.7133381365757 520.854897998015L2140.174436728282 520.854897998015L2140.174436728282 505.4946683510544L2199.7133381365757 505.4946683510544L2199.7133381365757 520.854897998015ZM2198.906421757373 488.26123996665956L2180.635529456861 488.26123996665956L2180.635529456861 467.94423827602685L2198.906421757373 467.94423827602685L2198.906421757373 488.26123996665956ZM2280.8660711306493 615.4658434595003L2263.430913651454 615.4658434595003L2263.430913651454 505.4946683510544L2279.396330582816 505.4946683510544L2280.0303363093326 533.5061940862245L2277.9554084770975 531.6329953487902Q2280.0303363093326 521.8923619141324 2285.5346587531776 515.5523046489704Q2291.0101627549084 509.2410658259228 2298.704686799446 506.12867407757057Q2306.370392401869 503.0162823292183 2314.8718328256086 503.0162823292183L2314.8718328256086 503.0162823292183Q2327.551947355933 503.0162823292183 2335.938114011215 508.6070600994066Q2344.353099108612 514.1978378695949 2348.704683867882 523.6502868831092Q2353.0562686271523 533.1027358966234 2353.0562686271523 544.7165680687156L2353.0562686271523 544.7165680687156L2353.0562686271523 615.4658434595003L2335.621111147957 615.4658434595003L2335.621111147957 549.7021585545019Q2335.621111147957 534.3419289075414 2329.6268751881676 526.3592204418601Q2323.603820786264 518.3476935340645 2311.154253792855 518.3476935340645L2311.154253792855 518.3476935340645Q2302.6528133691145 518.3476935340645 2295.794024145894 521.9788172404756Q2288.9352349226733 525.6099409468865 2284.900653026661 532.5840039385646Q2280.8660711306493 539.5292484881284 2280.8660711306493 549.7021585545019L2280.8660711306493 549.7021585545019L2280.8660711306493 615.4658434595003ZM2434.8141889056274 617.9442294813364L2434.8141889056274 617.9442294813364Q2420.4914231747844 617.9442294813364 2410.1167840136104 612.9874574376643Q2399.7421448524365 608.0018669518777 2393.83436421899 599.5868818544809Q2387.9265835855435 591.2007151991986 2387.0908487642264 580.8260760380244L2387.0908487642264 580.8260760380244L2405.361741064739 579.558064584992Q2407.004392265258 589.7309746513656 2414.3819134465375 595.5522999584689Q2421.7306161857023 601.3448068234577 2434.8141889056274 601.3448068234577L2434.8141889056274 601.3448068234577Q2447.0620268042358 601.3448068234577 2453.805542258999 597.8289568855043Q2460.5490577137625 594.3131069475508 2460.5490577137625 586.8203119978139L2460.5490577137625 586.8203119978139Q2460.5490577137625 582.0652690489424 2458.272400786727 578.9528773005902Q2455.966925417577 575.8404855522381 2449.7421419208727 573.6502839515456Q2443.5173584241684 571.4889007929678 2431.500068062475 569.413972960733L2431.500068062475 569.413972960733Q2415.505832688998 566.5033103071812 2406.4856603071994 562.238180874254Q2397.465487925401 558.0018698834413 2393.7190904505323 551.5465388498218Q2390.001511417778 545.1200262583167 2390.001511417778 536.2151276449756L2390.001511417778 536.2151276449756Q2390.001511417778 526.6474048630039 2394.7565543666497 519.1834283553814Q2399.5404157576354 511.7194518477588 2408.877591002692 507.3678670884886Q2418.2147662477487 503.0162823292183 2431.7017971572755 503.0162823292183L2431.7017971572755 503.0162823292183Q2445.3905571616024 503.0162823292183 2454.641277080316 507.8865990465473Q2463.863178556915 512.7569157638762 2469.2522272323026 520.7396242295574Q2474.6412759076907 528.7223326952387 2476.312745550324 538.2900554772104L2476.312745550324 538.2900554772104L2458.041853249812 539.5292484881284Q2456.8026602388936 533.7079231810251 2453.3732656272837 529.2410646532974Q2449.9726894577875 524.803024567684 2444.4683670139425 522.2093647773904Q2438.9640445700975 519.6157049870969 2431.500068062475 519.6157049870969L2431.500068062475 519.6157049870969Q2419.453959258667 519.6157049870969 2413.6614523936782 524.3707479359684Q2407.8401270865747 529.1546093269543 2407.8401270865747 536.2151276449756L2407.8401270865747 536.2151276449756Q2407.8401270865747 541.8059054151638 2410.549060645326 545.1200262583167Q2413.2291757619623 548.4341471014695 2419.2522301638664 550.4226196073612Q2425.27528456577 552.3822736711386 2435.2176470952286 554.0537433137722L2435.2176470952286 554.0537433137722Q2452.249346384823 556.7338584304089 2461.58652162988 560.998987863336Q2470.9236968749365 565.2641172962632 2474.6412759076907 571.4889007929678Q2478.387673382559 577.7136842896723 2478.387673382559 586.8203119978139L2478.387673382559 586.8203119978139Q2478.387673382559 596.5897638745862 2472.681621843913 603.53500842415Q2466.9755703052674 610.480252973714 2457.119663102152 614.2266504485822Q2447.263755899037 617.9442294813364 2434.8141889056274 617.9442294813364Z " fill="#f47c3c" transform="matrix(0.35305209213832833,0,0,0.35305209213832833,0,108.31238369139037)"/></g></svg>